<svg id="svg" xmlns="http://www.w3.org/2000/svg" xmlns:xlink="http://www.w3.org/1999/xlink" width="400" height="400" viewBox="0, 0, 400,400"><g id="svgg"><path id="path0" d="M239.535 44.465 C 232.094 46.782,218.671 52.638,217.054 54.272 C 216.628 54.704,213.633 57.029,210.399 59.441 C 207.165 61.852,201.752 67.429,198.371 71.835 C 194.989 76.240,191.617 80.595,190.878 81.511 C 175.010 101.170,173.265 142.713,187.111 171.174 L 192.321 181.884 179.503 195.205 C 172.452 202.532,143.657 231.651,115.513 259.914 C 45.666 330.054,41.860 334.477,41.860 345.534 C 41.860 358.037,57.721 360.433,67.438 349.398 C 68.293 348.427,72.829 344.322,77.519 340.276 C 82.209 336.230,115.109 304.056,150.630 268.778 C 219.472 200.406,215.917 203.236,225.046 209.555 C 227.309 211.121,229.696 212.403,230.350 212.403 C 231.004 212.403,232.698 213.452,234.116 214.735 C 240.940 220.911,268.584 224.905,281.395 221.565 C 284.806 220.676,290.039 219.373,293.023 218.669 C 335.024 208.759,368.356 149.202,355.649 106.767 C 350.392 89.212,325.928 55.051,320.857 58.185 C 320.238 58.568,318.898 57.877,317.880 56.650 C 308.038 44.791,261.658 37.578,239.535 44.465 M291.520 75.797 C 319.468 88.199,333.283 118.327,324.142 146.940 C 321.033 156.672,314.132 168.992,311.789 168.992 C 311.047 168.992,310.074 170.388,309.628 172.093 C 309.182 173.798,307.706 175.194,306.347 175.194 C 304.988 175.194,303.876 175.877,303.876 176.713 C 303.876 180.791,277.803 190.638,266.905 190.675 C 252.986 190.722,224.806 177.726,224.806 171.259 C 224.806 170.195,223.877 168.967,222.741 168.531 C 217.261 166.429,209.294 143.127,209.319 129.277 C 209.394 88.349,254.167 59.220,291.520 75.797 " stroke="none" fill="#ffffff" fill-rule="evenodd"></path></g></svg>