<svg id="svg" xmlns="http://www.w3.org/2000/svg" xmlns:xlink="http://www.w3.org/1999/xlink" width="400" height="400" viewBox="0, 0, 400,400"><g id="svgg"><path id="path0" d="M243.399 25.567 C 239.600 28.050,209.798 56.590,177.173 88.989 L 117.855 147.897 112.612 144.738 C 81.050 125.719,52.467 128.393,26.380 152.806 C -18.399 194.712,-0.862 264.739,57.880 278.589 C 120.509 293.355,167.535 233.828,140.601 173.878 L 136.432 164.599 170.092 131.071 C 210.976 90.347,250.942 48.624,256.761 40.591 C 266.847 26.667,257.608 16.280,243.399 25.567 M301.640 123.275 C 258.552 134.523,238.129 183.306,257.996 227.525 L 262.164 236.805 228.505 270.332 C 141.781 356.715,131.817 368.867,140.792 377.299 C 148.215 384.273,152.691 380.671,221.423 312.414 L 280.742 253.506 285.985 256.666 C 317.546 275.685,346.129 273.010,372.216 248.597 C 430.466 194.085,379.189 103.031,301.640 123.275 M334.659 145.297 C 384.112 153.314,385.391 226.362,336.345 241.587 C 280.766 258.839,249.958 175.097,302.438 149.421 C 309.950 145.746,321.119 143.200,326.316 143.979 C 327.860 144.210,331.614 144.804,334.659 145.297 M96.065 162.665 C 132.433 180.569,132.551 234.177,96.261 251.932 C 72.024 263.790,42.207 254.281,30.994 231.118 C 10.320 188.412,54.327 142.118,96.065 162.665 " stroke="none" fill="#000000" fill-rule="evenodd"></path></g></svg>